<mxfile host="65bd71144e">
    <diagram id="LgMwJFXvIWyML-hxIvUT" name="Page-1">
        <mxGraphModel dx="1976" dy="1407" grid="1" gridSize="10" guides="1" tooltips="1" connect="1" arrows="1" fold="1" page="1" pageScale="1" pageWidth="850" pageHeight="1100" math="0" shadow="0">
            <root>
                <mxCell id="0"/>
                <mxCell id="1" parent="0"/>
                <mxCell id="70" style="edgeStyle=orthogonalEdgeStyle;html=1;exitX=1;exitY=0.5;exitDx=0;exitDy=0;entryX=0;entryY=0.5;entryDx=0;entryDy=0;fontSize=15;fontColor=#000000;endArrow=block;endFill=1;" edge="1" parent="1" source="7" target="8">
                    <mxGeometry relative="1" as="geometry"/>
                </mxCell>
                <mxCell id="7" value="START" style="text;html=1;strokeColor=none;fillColor=none;align=center;verticalAlign=middle;whiteSpace=wrap;rounded=0;fontSize=30;" vertex="1" parent="1">
                    <mxGeometry x="20" y="107.5" width="100" height="30" as="geometry"/>
                </mxCell>
                <mxCell id="68" style="edgeStyle=orthogonalEdgeStyle;html=1;exitX=1;exitY=0.5;exitDx=0;exitDy=0;entryX=0;entryY=0.5;entryDx=0;entryDy=0;fontSize=15;fontColor=#000000;endArrow=block;endFill=1;" edge="1" parent="1" source="8" target="9">
                    <mxGeometry relative="1" as="geometry"/>
                </mxCell>
                <mxCell id="8" value="&lt;font color=&quot;#000000&quot; style=&quot;font-size: 30px&quot;&gt;Push &lt;br&gt;&lt;/font&gt;R&lt;sub style=&quot;font-size: 30px&quot;&gt;0&lt;/sub&gt;&lt;font color=&quot;#000000&quot; style=&quot;font-size: 30px&quot;&gt; to &lt;/font&gt;A" style="rounded=0;whiteSpace=wrap;html=1;fontSize=30;fontColor=#FFB366;strokeColor=#000000;fillColor=none;" vertex="1" parent="1">
                    <mxGeometry x="185" y="85" width="120" height="75" as="geometry"/>
                </mxCell>
                <mxCell id="9" value="&lt;font color=&quot;#000000&quot; style=&quot;font-size: 30px&quot;&gt;Copy&amp;nbsp;&lt;br&gt;&lt;/font&gt;P&lt;font color=&quot;#000000&quot; style=&quot;font-size: 30px&quot;&gt;&amp;nbsp;to &lt;/font&gt;T" style="rounded=0;whiteSpace=wrap;html=1;fontSize=30;fontColor=#FFB366;strokeColor=#000000;fillColor=none;" vertex="1" parent="1">
                    <mxGeometry x="410" y="87.5" width="100" height="70" as="geometry"/>
                </mxCell>
                <mxCell id="17" style="edgeStyle=none;html=1;exitX=1;exitY=0.5;exitDx=0;exitDy=0;entryX=0;entryY=0.5;entryDx=0;entryDy=0;fontSize=15;fontColor=#000000;endArrow=block;endFill=1;" edge="1" parent="1" source="10" target="11">
                    <mxGeometry relative="1" as="geometry"/>
                </mxCell>
                <mxCell id="20" style="edgeStyle=none;html=1;exitX=0.75;exitY=1;exitDx=0;exitDy=0;entryX=0.75;entryY=0;entryDx=0;entryDy=0;fontSize=15;fontColor=#000000;endArrow=block;endFill=1;" edge="1" parent="1" source="10" target="19">
                    <mxGeometry relative="1" as="geometry"/>
                </mxCell>
                <mxCell id="10" value="&lt;font color=&quot;#000000&quot; style=&quot;font-size: 30px&quot;&gt;Pop&lt;br&gt;&lt;/font&gt;T&lt;font color=&quot;#000000&quot; style=&quot;font-size: 30px&quot;&gt;&amp;nbsp;to &lt;/font&gt;N" style="rounded=0;whiteSpace=wrap;html=1;fontSize=30;fontColor=#FFB366;strokeColor=#000000;fillColor=none;" vertex="1" parent="1">
                    <mxGeometry x="530" y="87.5" width="100" height="70" as="geometry"/>
                </mxCell>
                <mxCell id="13" style="edgeStyle=none;html=1;exitX=1;exitY=0.25;exitDx=0;exitDy=0;fontSize=30;fontColor=#FFB366;endArrow=block;endFill=1;entryX=0;entryY=0.5;entryDx=0;entryDy=0;" edge="1" parent="1" source="11" target="12">
                    <mxGeometry relative="1" as="geometry">
                        <mxPoint x="850" y="105.09523809523807" as="targetPoint"/>
                        <Array as="points">
                            <mxPoint x="820" y="105"/>
                            <mxPoint x="820" y="123"/>
                        </Array>
                    </mxGeometry>
                </mxCell>
                <mxCell id="14" style="edgeStyle=none;html=1;exitX=1;exitY=0.75;exitDx=0;exitDy=0;entryX=0;entryY=0.5;entryDx=0;entryDy=0;fontSize=30;fontColor=#FFB366;endArrow=block;endFill=1;" edge="1" parent="1" source="11" target="12">
                    <mxGeometry relative="1" as="geometry">
                        <Array as="points">
                            <mxPoint x="820" y="140"/>
                            <mxPoint x="820" y="123"/>
                        </Array>
                    </mxGeometry>
                </mxCell>
                <mxCell id="11" value="&lt;font color=&quot;#000000&quot; style=&quot;font-size: 30px&quot;&gt;Pop&lt;br&gt;&lt;/font&gt;A&lt;font color=&quot;#000000&quot; style=&quot;font-size: 30px&quot;&gt;&amp;nbsp;to &lt;/font&gt;R&lt;sub&gt;0&lt;/sub&gt;" style="rounded=0;whiteSpace=wrap;html=1;fontSize=30;fontColor=#FFB366;strokeColor=#000000;fillColor=none;" vertex="1" parent="1">
                    <mxGeometry x="700" y="87.5" width="100" height="70" as="geometry"/>
                </mxCell>
                <mxCell id="12" value="HALT" style="text;html=1;strokeColor=none;fillColor=none;align=center;verticalAlign=middle;whiteSpace=wrap;rounded=0;fontSize=30;fontColor=#FF0000;" vertex="1" parent="1">
                    <mxGeometry x="890" y="107.5" width="80" height="30" as="geometry"/>
                </mxCell>
                <mxCell id="15" value="empty" style="text;html=1;strokeColor=none;fillColor=none;align=center;verticalAlign=middle;whiteSpace=wrap;rounded=0;fontSize=15;fontColor=#000000;" vertex="1" parent="1">
                    <mxGeometry x="800" y="85" width="60" height="17.5" as="geometry"/>
                </mxCell>
                <mxCell id="16" value="done" style="text;html=1;strokeColor=none;fillColor=none;align=center;verticalAlign=middle;whiteSpace=wrap;rounded=0;fontSize=15;fontColor=#000000;" vertex="1" parent="1">
                    <mxGeometry x="800" y="142.5" width="60" height="17.5" as="geometry"/>
                </mxCell>
                <mxCell id="18" value="empty" style="text;html=1;strokeColor=none;fillColor=none;align=center;verticalAlign=middle;whiteSpace=wrap;rounded=0;fontSize=15;fontColor=#000000;" vertex="1" parent="1">
                    <mxGeometry x="630" y="102.5" width="60" height="17.5" as="geometry"/>
                </mxCell>
                <mxCell id="21" style="edgeStyle=none;html=1;exitX=0.25;exitY=0;exitDx=0;exitDy=0;entryX=0.5;entryY=1;entryDx=0;entryDy=0;fontSize=15;fontColor=#000000;endArrow=block;endFill=1;" edge="1" parent="1" source="19" target="10">
                    <mxGeometry relative="1" as="geometry"/>
                </mxCell>
                <mxCell id="23" style="edgeStyle=none;html=1;exitX=1;exitY=0.5;exitDx=0;exitDy=0;entryX=0;entryY=0.5;entryDx=0;entryDy=0;fontSize=15;fontColor=#000000;endArrow=doubleBlock;endFill=1;" edge="1" parent="1" source="19" target="22">
                    <mxGeometry relative="1" as="geometry"/>
                </mxCell>
                <mxCell id="19" value="&lt;font color=&quot;#ffb366&quot;&gt;PC&lt;/font&gt;&lt;sup&gt;-&lt;/sup&gt;" style="text;html=1;strokeColor=none;fillColor=none;align=center;verticalAlign=middle;whiteSpace=wrap;rounded=0;fontSize=30;" vertex="1" parent="1">
                    <mxGeometry x="568" y="230" width="50" height="50" as="geometry"/>
                </mxCell>
                <mxCell id="24" style="edgeStyle=none;html=1;exitX=0.5;exitY=0;exitDx=0;exitDy=0;entryX=0.5;entryY=1;entryDx=0;entryDy=0;fontSize=15;fontColor=#000000;endArrow=block;endFill=1;" edge="1" parent="1" source="22" target="11">
                    <mxGeometry relative="1" as="geometry"/>
                </mxCell>
                <mxCell id="29" style="edgeStyle=none;html=1;exitX=0.5;exitY=1;exitDx=0;exitDy=0;entryX=0.5;entryY=0;entryDx=0;entryDy=0;fontSize=15;fontColor=#000000;endArrow=block;endFill=1;" edge="1" parent="1" source="22" target="28">
                    <mxGeometry relative="1" as="geometry"/>
                </mxCell>
                <mxCell id="22" value="&lt;font color=&quot;#000000&quot; style=&quot;font-size: 30px&quot;&gt;Pop&lt;br&gt;&lt;/font&gt;N&lt;font color=&quot;#000000&quot; style=&quot;font-size: 30px&quot;&gt;&amp;nbsp;to &lt;/font&gt;C" style="rounded=0;whiteSpace=wrap;html=1;fontSize=30;fontColor=#FFB366;strokeColor=#000000;fillColor=none;" vertex="1" parent="1">
                    <mxGeometry x="700" y="220" width="100" height="70" as="geometry"/>
                </mxCell>
                <mxCell id="25" value="done" style="text;html=1;strokeColor=none;fillColor=none;align=center;verticalAlign=middle;whiteSpace=wrap;rounded=0;fontSize=15;fontColor=#000000;" vertex="1" parent="1">
                    <mxGeometry x="600" y="180" width="60" height="17.5" as="geometry"/>
                </mxCell>
                <mxCell id="27" value="empty" style="text;html=1;strokeColor=none;fillColor=none;align=center;verticalAlign=middle;whiteSpace=wrap;rounded=0;fontSize=15;fontColor=#000000;" vertex="1" parent="1">
                    <mxGeometry x="750" y="180" width="50" height="17.5" as="geometry"/>
                </mxCell>
                <mxCell id="32" style="edgeStyle=orthogonalEdgeStyle;html=1;exitX=0;exitY=0.25;exitDx=0;exitDy=0;entryX=1;entryY=0.5;entryDx=0;entryDy=0;fontSize=15;fontColor=#000000;endArrow=block;endFill=1;" edge="1" parent="1" source="28" target="31">
                    <mxGeometry relative="1" as="geometry"/>
                </mxCell>
                <mxCell id="33" style="edgeStyle=orthogonalEdgeStyle;html=1;exitX=0;exitY=0.75;exitDx=0;exitDy=0;fontSize=15;fontColor=#000000;endArrow=block;endFill=1;entryX=1;entryY=0.5;entryDx=0;entryDy=0;" edge="1" parent="1" source="28" target="31">
                    <mxGeometry relative="1" as="geometry">
                        <mxPoint x="640" y="402.3333333333335" as="targetPoint"/>
                    </mxGeometry>
                </mxCell>
                <mxCell id="28" value="&lt;font color=&quot;#000000&quot; style=&quot;font-size: 30px&quot;&gt;Pop&lt;br&gt;&lt;/font&gt;A&lt;font color=&quot;#000000&quot; style=&quot;font-size: 30px&quot;&gt;&amp;nbsp;to &lt;/font&gt;R" style="rounded=0;whiteSpace=wrap;html=1;fontSize=30;fontColor=#FFB366;strokeColor=#000000;fillColor=none;" vertex="1" parent="1">
                    <mxGeometry x="700" y="350" width="100" height="70" as="geometry"/>
                </mxCell>
                <mxCell id="30" value="done" style="text;html=1;strokeColor=none;fillColor=none;align=center;verticalAlign=middle;whiteSpace=wrap;rounded=0;fontSize=15;fontColor=#000000;" vertex="1" parent="1">
                    <mxGeometry x="745" y="310" width="60" height="17.5" as="geometry"/>
                </mxCell>
                <mxCell id="37" style="edgeStyle=orthogonalEdgeStyle;html=1;exitX=0.5;exitY=1;exitDx=0;exitDy=0;entryX=0.5;entryY=0;entryDx=0;entryDy=0;fontSize=15;fontColor=#000000;endArrow=block;endFill=1;" edge="1" parent="1" source="31" target="36">
                    <mxGeometry relative="1" as="geometry"/>
                </mxCell>
                <mxCell id="39" style="edgeStyle=orthogonalEdgeStyle;html=1;exitX=0;exitY=0.5;exitDx=0;exitDy=0;entryX=1;entryY=0.5;entryDx=0;entryDy=0;fontSize=15;fontColor=#000000;endArrow=doubleBlock;endFill=1;" edge="1" parent="1" source="31" target="38">
                    <mxGeometry relative="1" as="geometry"/>
                </mxCell>
                <mxCell id="31" value="&lt;font color=&quot;#ffb366&quot;&gt;C&lt;/font&gt;&lt;sup&gt;-&lt;/sup&gt;" style="text;html=1;strokeColor=none;fillColor=none;align=center;verticalAlign=middle;whiteSpace=wrap;rounded=0;fontSize=30;" vertex="1" parent="1">
                    <mxGeometry x="580" y="360" width="50" height="50" as="geometry"/>
                </mxCell>
                <mxCell id="34" value="empty" style="text;html=1;strokeColor=none;fillColor=none;align=center;verticalAlign=middle;whiteSpace=wrap;rounded=0;fontSize=15;fontColor=#000000;" vertex="1" parent="1">
                    <mxGeometry x="645" y="350" width="50" height="17.5" as="geometry"/>
                </mxCell>
                <mxCell id="35" value="done" style="text;html=1;strokeColor=none;fillColor=none;align=center;verticalAlign=middle;whiteSpace=wrap;rounded=0;fontSize=15;fontColor=#000000;" vertex="1" parent="1">
                    <mxGeometry x="635" y="402.5" width="60" height="17.5" as="geometry"/>
                </mxCell>
                <mxCell id="41" style="edgeStyle=orthogonalEdgeStyle;html=1;exitX=0;exitY=0.5;exitDx=0;exitDy=0;entryX=1;entryY=0.5;entryDx=0;entryDy=0;fontSize=15;fontColor=#000000;endArrow=doubleBlock;endFill=1;" edge="1" parent="1" source="36" target="40">
                    <mxGeometry relative="1" as="geometry"/>
                </mxCell>
                <mxCell id="43" style="edgeStyle=orthogonalEdgeStyle;html=1;exitX=1;exitY=0.5;exitDx=0;exitDy=0;entryX=0;entryY=0.5;entryDx=0;entryDy=0;fontSize=15;fontColor=#000000;endArrow=block;endFill=1;" edge="1" parent="1" source="36" target="42">
                    <mxGeometry relative="1" as="geometry"/>
                </mxCell>
                <mxCell id="36" value="&lt;font color=&quot;#ffb366&quot;&gt;C&lt;/font&gt;&lt;sup&gt;-&lt;/sup&gt;" style="text;html=1;strokeColor=none;fillColor=none;align=center;verticalAlign=middle;whiteSpace=wrap;rounded=0;fontSize=30;" vertex="1" parent="1">
                    <mxGeometry x="580" y="500" width="50" height="50" as="geometry"/>
                </mxCell>
                <mxCell id="49" style="edgeStyle=orthogonalEdgeStyle;html=1;exitX=0;exitY=0.5;exitDx=0;exitDy=0;entryX=1;entryY=0.5;entryDx=0;entryDy=0;fontSize=15;fontColor=#000000;endArrow=block;endFill=1;" edge="1" parent="1" source="38" target="48">
                    <mxGeometry relative="1" as="geometry"/>
                </mxCell>
                <mxCell id="38" value="&lt;font color=&quot;#ffb366&quot;&gt;R&lt;/font&gt;&lt;sup&gt;+&lt;/sup&gt;" style="text;html=1;strokeColor=none;fillColor=none;align=center;verticalAlign=middle;whiteSpace=wrap;rounded=0;fontSize=30;" vertex="1" parent="1">
                    <mxGeometry x="470" y="360" width="50" height="50" as="geometry"/>
                </mxCell>
                <mxCell id="47" style="edgeStyle=orthogonalEdgeStyle;html=1;exitX=0;exitY=0.5;exitDx=0;exitDy=0;entryX=1;entryY=0.5;entryDx=0;entryDy=0;fontSize=15;fontColor=#000000;endArrow=block;endFill=1;" edge="1" parent="1" source="40" target="45">
                    <mxGeometry relative="1" as="geometry"/>
                </mxCell>
                <mxCell id="40" value="&lt;font color=&quot;#ffb366&quot;&gt;N&lt;/font&gt;&lt;sup&gt;+&lt;/sup&gt;" style="text;html=1;strokeColor=none;fillColor=none;align=center;verticalAlign=middle;whiteSpace=wrap;rounded=0;fontSize=30;" vertex="1" parent="1">
                    <mxGeometry x="470" y="500" width="50" height="50" as="geometry"/>
                </mxCell>
                <mxCell id="44" style="edgeStyle=orthogonalEdgeStyle;html=1;exitX=0.5;exitY=0;exitDx=0;exitDy=0;entryX=0.5;entryY=1;entryDx=0;entryDy=0;fontSize=15;fontColor=#000000;endArrow=block;endFill=1;" edge="1" parent="1" source="42" target="28">
                    <mxGeometry relative="1" as="geometry"/>
                </mxCell>
                <mxCell id="42" value="&lt;font color=&quot;#000000&quot; style=&quot;font-size: 30px&quot;&gt;Push&lt;br&gt;&lt;/font&gt;R&lt;font color=&quot;#000000&quot; style=&quot;font-size: 30px&quot;&gt;&amp;nbsp;to &lt;/font&gt;S" style="rounded=0;whiteSpace=wrap;html=1;fontSize=30;fontColor=#FFB366;strokeColor=#000000;fillColor=none;" vertex="1" parent="1">
                    <mxGeometry x="700" y="490" width="100" height="70" as="geometry"/>
                </mxCell>
                <mxCell id="52" style="edgeStyle=orthogonalEdgeStyle;html=1;exitX=0;exitY=0.75;exitDx=0;exitDy=0;entryX=1;entryY=0.5;entryDx=0;entryDy=0;fontSize=15;fontColor=#000000;endArrow=block;endFill=1;" edge="1" parent="1" source="45" target="50">
                    <mxGeometry relative="1" as="geometry"/>
                </mxCell>
                <mxCell id="53" style="edgeStyle=orthogonalEdgeStyle;html=1;exitX=0;exitY=0.25;exitDx=0;exitDy=0;fontSize=15;fontColor=#000000;endArrow=block;endFill=1;entryX=1;entryY=0.5;entryDx=0;entryDy=0;" edge="1" parent="1" source="45" target="50">
                    <mxGeometry relative="1" as="geometry">
                        <mxPoint x="275" y="507.2068965517242" as="targetPoint"/>
                    </mxGeometry>
                </mxCell>
                <mxCell id="45" value="&lt;font color=&quot;#000000&quot; style=&quot;font-size: 30px&quot;&gt;Pop&lt;br&gt;&lt;/font&gt;N&lt;font color=&quot;#000000&quot; style=&quot;font-size: 30px&quot;&gt;&amp;nbsp;to &lt;/font&gt;PC" style="rounded=0;whiteSpace=wrap;html=1;fontSize=30;fontColor=#FFB366;strokeColor=#000000;fillColor=none;" vertex="1" parent="1">
                    <mxGeometry x="315" y="490" width="110" height="70" as="geometry"/>
                </mxCell>
                <mxCell id="57" style="edgeStyle=orthogonalEdgeStyle;html=1;exitX=0;exitY=0.5;exitDx=0;exitDy=0;entryX=1;entryY=0.5;entryDx=0;entryDy=0;fontSize=15;fontColor=#000000;endArrow=block;endFill=1;" edge="1" parent="1" source="48" target="56">
                    <mxGeometry relative="1" as="geometry"/>
                </mxCell>
                <mxCell id="48" value="&lt;font color=&quot;#000000&quot; style=&quot;font-size: 30px&quot;&gt;Copy&amp;nbsp;&lt;br&gt;&lt;/font&gt;N&lt;font color=&quot;#000000&quot; style=&quot;font-size: 30px&quot;&gt;&amp;nbsp;to &lt;/font&gt;PC" style="rounded=0;whiteSpace=wrap;html=1;fontSize=30;fontColor=#FFB366;strokeColor=#000000;fillColor=none;" vertex="1" parent="1">
                    <mxGeometry x="175" y="350" width="120" height="70" as="geometry"/>
                </mxCell>
                <mxCell id="54" style="edgeStyle=orthogonalEdgeStyle;html=1;exitX=0.5;exitY=0;exitDx=0;exitDy=0;entryX=0.5;entryY=1;entryDx=0;entryDy=0;fontSize=15;fontColor=#000000;endArrow=doubleBlock;endFill=1;" edge="1" parent="1" source="50" target="48">
                    <mxGeometry relative="1" as="geometry"/>
                </mxCell>
                <mxCell id="58" style="edgeStyle=orthogonalEdgeStyle;html=1;exitX=0;exitY=0.5;exitDx=0;exitDy=0;entryX=1;entryY=0.5;entryDx=0;entryDy=0;fontSize=15;fontColor=#000000;endArrow=block;endFill=1;" edge="1" parent="1" source="50" target="56">
                    <mxGeometry relative="1" as="geometry">
                        <Array as="points">
                            <mxPoint x="145" y="525"/>
                            <mxPoint x="145" y="385"/>
                        </Array>
                    </mxGeometry>
                </mxCell>
                <mxCell id="50" value="&lt;font color=&quot;#ffb366&quot;&gt;R&lt;/font&gt;&lt;sup&gt;-&lt;/sup&gt;" style="text;html=1;strokeColor=none;fillColor=none;align=center;verticalAlign=middle;whiteSpace=wrap;rounded=0;fontSize=30;" vertex="1" parent="1">
                    <mxGeometry x="210" y="500" width="50" height="50" as="geometry"/>
                </mxCell>
                <mxCell id="63" style="edgeStyle=orthogonalEdgeStyle;html=1;exitX=0.75;exitY=0;exitDx=0;exitDy=0;entryX=0.75;entryY=1;entryDx=0;entryDy=0;fontSize=15;fontColor=#000000;endArrow=block;endFill=1;" edge="1" parent="1" source="56" target="62">
                    <mxGeometry relative="1" as="geometry"/>
                </mxCell>
                <mxCell id="56" value="&lt;font color=&quot;#000000&quot; style=&quot;font-size: 30px&quot;&gt;Push&lt;br&gt;&lt;/font&gt;R&lt;font color=&quot;#000000&quot; style=&quot;font-size: 30px&quot;&gt;&amp;nbsp;to &lt;/font&gt;A" style="rounded=0;whiteSpace=wrap;html=1;fontSize=30;fontColor=#FFB366;strokeColor=#000000;fillColor=none;" vertex="1" parent="1">
                    <mxGeometry x="5" y="350" width="100" height="70" as="geometry"/>
                </mxCell>
                <mxCell id="60" value="empty" style="text;html=1;strokeColor=none;fillColor=none;align=center;verticalAlign=middle;whiteSpace=wrap;rounded=0;fontSize=15;fontColor=#000000;" vertex="1" parent="1">
                    <mxGeometry x="265" y="490" width="50" height="17.5" as="geometry"/>
                </mxCell>
                <mxCell id="61" value="done" style="text;html=1;strokeColor=none;fillColor=none;align=center;verticalAlign=middle;whiteSpace=wrap;rounded=0;fontSize=15;fontColor=#000000;" vertex="1" parent="1">
                    <mxGeometry x="255" y="542.5" width="60" height="17.5" as="geometry"/>
                </mxCell>
                <mxCell id="64" style="edgeStyle=orthogonalEdgeStyle;html=1;exitX=0.25;exitY=1;exitDx=0;exitDy=0;entryX=0.25;entryY=0;entryDx=0;entryDy=0;fontSize=15;fontColor=#000000;endArrow=block;endFill=1;" edge="1" parent="1" source="62" target="56">
                    <mxGeometry relative="1" as="geometry"/>
                </mxCell>
                <mxCell id="67" style="edgeStyle=orthogonalEdgeStyle;html=1;exitX=1;exitY=0.5;exitDx=0;exitDy=0;entryX=0;entryY=0.5;entryDx=0;entryDy=0;fontSize=15;fontColor=#000000;endArrow=block;endFill=1;" edge="1" parent="1" source="62" target="9">
                    <mxGeometry relative="1" as="geometry">
                        <Array as="points">
                            <mxPoint x="340" y="245"/>
                            <mxPoint x="340" y="123"/>
                            <mxPoint x="410" y="123"/>
                        </Array>
                    </mxGeometry>
                </mxCell>
                <mxCell id="62" value="&lt;font color=&quot;#000000&quot; style=&quot;font-size: 30px&quot;&gt;Pop&lt;br&gt;&lt;/font&gt;S&lt;font color=&quot;#000000&quot; style=&quot;font-size: 30px&quot;&gt;&amp;nbsp;to &lt;/font&gt;R" style="rounded=0;whiteSpace=wrap;html=1;fontSize=30;fontColor=#FFB366;strokeColor=#000000;fillColor=none;" vertex="1" parent="1">
                    <mxGeometry x="5" y="210" width="100" height="70" as="geometry"/>
                </mxCell>
                <mxCell id="65" value="done" style="text;html=1;strokeColor=none;fillColor=none;align=center;verticalAlign=middle;whiteSpace=wrap;rounded=0;fontSize=15;fontColor=#000000;" vertex="1" parent="1">
                    <mxGeometry x="-25" y="310" width="60" height="17.5" as="geometry"/>
                </mxCell>
                <mxCell id="69" value="empty" style="text;html=1;strokeColor=none;fillColor=none;align=center;verticalAlign=middle;whiteSpace=wrap;rounded=0;fontSize=15;fontColor=#000000;" vertex="1" parent="1">
                    <mxGeometry x="125" y="220" width="60" height="17.5" as="geometry"/>
                </mxCell>
            </root>
        </mxGraphModel>
    </diagram>
</mxfile>